<svg xmlns="http://www.w3.org/2000/svg" viewBox="-2 -2 24 24" height="20" width="20" fill="currentColor">
  <g>
    <path d="M13.289185,5.817505L11.875,7.23175c1.55957,1.55957,1.559937,4.096924,0,5.65686l1.414185,1.414185C15.628723,11.963257,15.628723,8.157043,13.289185,5.817505z"/>
    <path d="M16.103149,3.009827l-1.414551,1.414551c3.101196,3.101196,3.101196,8.147583,0,11.248779l1.414185,1.414246C19.984314,13.205872,19.984314,6.89093,16.103149,3.009827z"/>
    <path d="M2,6C1.447693,6,1,6.447693,1,7v6c0,0.552307,0.447693,1,1,1h3l6,4V2L5,6H2z"/>
  </g>
</svg>
