<svg xmlns="http://www.w3.org/2000/svg" viewBox="0 0 72 72" height="20" width="20" fill="currentColor">
  <g>
    <path d="M44.9,4.1c-2.1-.6-4.3-1-6.6-1.1-.8,0-1.5-.1-2.3-.1s-1.5,0-2.3.1c-2.3.2-4.5.5-6.6,1.1C13.1,7.9,2.8,20.8,2.8,36s10.2,27.9,24.1,31.9c2.1.6,4.3,1,6.6,1.2.8,0,1.7.1,2.5.1s1.7,0,2.5-.1c2.3-.2,4.5-.6,6.6-1.2,13.9-4,24.1-16.7,24.1-31.9S58.9,7.9,44.9,4.1ZM63.1,33.1h-13.4c-.2-7.6-1.2-15-3-22.2,8.9,3.8,15.3,12.2,16.4,22.2ZM36,8.7c1.4,0,2.8.1,4.2.4,2.2,7.7,3.4,15.7,3.7,24h-15.8c.3-8.3,1.6-16.3,3.7-24,1.4-.2,2.8-.4,4.2-.4ZM25.2,10.9c-1.7,7.1-2.7,14.5-3,22.2h-13.4c1.1-10,7.5-18.3,16.4-22.2ZM8.9,38.9h13.4c.2,7.6,1.1,15,2.8,22.1-8.8-3.9-15.1-12.2-16.2-22.1ZM36,63.3c-1.5,0-3-.2-4.4-.4-2.1-7.7-3.3-15.7-3.5-24h15.8c-.2,8.3-1.4,16.3-3.5,24-1.4.2-2.9.4-4.4.4ZM47,61c1.7-7.1,2.6-14.5,2.8-22.1h13.4c-1.1,9.9-7.4,18.2-16.2,22.1Z"/>
  </g>
</svg>