<svg xmlns="http://www.w3.org/2000/svg" height="16" width="16" viewBox="-2 -2 20 20" fill="currentColor">
  <path d="M2,17.0024554 L2,9.99754465 C2,9.4463114 2.44771525,9 3,9 C3.55613518,9 4,9.44902676 4,10.0029293 L4,16 L16,16 L16,10.0029293 C16,9.43788135 16.4477153,9 17,9 C17.5561352,9 18,9.44661595 18,9.99754465 L18,17.0024554 C18,17.5536886 17.5518945,18 16.9991283,18 L3.00087166,18 C2.44463086,18 2,17.553384 2,17.0024554 Z M11,13 L9,13 L9,6 L6.99895656,6 C6.44266033,6 6.31604759,5.68395241 6.70591205,5.29408795 L10,2 L13.2940879,5.29408795 C13.6861267,5.68612671 13.5527519,6 13.0010434,6 L11,6 L11,13 Z" transform="translate(-2 -2)"/>
</svg>
