<svg xmlns="http://www.w3.org/2000/svg" height="16" width="16" viewBox="-2 -2 20 20" fill="currentColor">
  <path d="M32,17.0024554 L32,9.99754465 C32,9.4463114 32.4477153,9 33,9 C33.5561352,9 34,9.44902676 34,10.0029293 L34,16 L46,16 L46,10.0029293 C46,9.43788135 46.4477153,9 47,9 C47.5561352,9 48,9.44661595 48,9.99754465 L48,17.0024554 C48,17.5536886 47.5518945,18 46.9991283,18 L33.0008717,18 C32.4446309,18 32,17.553384 32,17.0024554 Z M40,2 C40.5561352,2 41,2.44902676 41,3.00292933 L41,9 L43.0010434,9 C43.5573397,9 43.6839524,9.31604759 43.2940879,9.70591205 L40,13 L36.7059121,9.70591205 C36.3138733,9.31387329 36.4472481,9 36.9989566,9 L39,9 L39,3.00292933 C39,2.43788135 39.4477153,2 40,2 Z" transform="translate(-32 -2)"/>
</svg>
