<svg xmlns="http://www.w3.org/2000/svg" viewBox="0 0 24 24" height="24" width="24" fill="currentColor">
  <path d="M3,6 C2.44771525,6 2,5.55228475 2,5 C2,4.44771525 2.44771525,4 3,4 L4.64765383,4 C5.0797487,2.5871829 6.41189658,1.60369786 8,1.60369786 C9.58810342,1.60369786 10.9202513,2.5871829 11.3523462,4 L21,4 C21.5522847,4 22,4.44771525 22,5 C22,5.55228475 21.5522847,6 21,6 L11.3550607,6 C10.9247861,7.44574447 9.58551032,8.5 8,8.5 C6.41448968,8.5 5.07521393,7.44574447 4.64493934,6 L3,6 Z M8,22.5 C6.41448968,22.5 5.07521393,21.4457445 4.64493934,20 L3,20 C2.44771525,20 2,19.5522847 2,19 C2,18.4477153 2.44771525,18 3,18 L4.64493934,18 C5.07521393,16.5542555 6.41448968,15.5 8,15.5 C9.58551032,15.5 10.9247861,16.5542555 11.3550607,18 L21,18 C21.5522847,18 22,18.4477153 22,19 C22,19.5522847 21.5522847,20 21,20 L11.3550607,20 C10.9247861,21.4457445 9.58551032,22.5 8,22.5 Z M3,13 C2.44771525,13 2,12.5522847 2,12 C2,11.4477153 2.44771525,11 3,11 L12.6449393,11 C13.0752139,9.55425553 14.4144897,8.5 16,8.5 C17.5855103,8.5 18.9247861,9.55425553 19.3550607,11 L21,11 C21.5522847,11 22,11.4477153 22,12 C22,12.5522847 21.5522847,13 21,13 L19.3550607,13 C18.9247861,14.4457445 17.5855103,15.5 16,15.5 C14.4144897,15.5 13.0752139,14.4457445 12.6449393,13 L3,13 Z M16,13.5 C16.8284271,13.5 17.5,12.8284271 17.5,12 C17.5,11.1715729 16.8284271,10.5 16,10.5 C15.1715729,10.5 14.5,11.1715729 14.5,12 C14.5,12.8284271 15.1715729,13.5 16,13.5 Z M8,20.5 C8.82842712,20.5 9.5,19.8284271 9.5,19 C9.5,18.1715729 8.82842712,17.5 8,17.5 C7.17157288,17.5 6.5,18.1715729 6.5,19 C6.5,19.8284271 7.17157288,20.5 8,20.5 Z M8,6.5 C8.82842712,6.5 9.5,5.82842712 9.5,5 C9.5,4.20497688 8.86217156,3.60369786 8,3.60369786 C7.13782844,3.60369786 6.5,4.20497688 6.5,5 C6.5,5.82842712 7.17157288,6.5 8,6.5 Z"/>
</svg>
