<?xml version="1.0" encoding="UTF-8"?>
<svg width="33px" height="33px" viewBox="0 0 33 33" version="1.1" xmlns="http://www.w3.org/2000/svg" xmlns:xlink="http://www.w3.org/1999/xlink">
    <title>star</title>
    <defs>
        <linearGradient x1="24.1836376%" y1="13.9637465%" x2="77.4381145%" y2="84.5637289%" id="linearGradient-1">
            <stop stop-color="#FFED61" offset="0%"></stop>
            <stop stop-color="#F7D43A" offset="100%"></stop>
        </linearGradient>
        <path d="M16.5,23.1636091 L9.13678317,28.2390935 C8.68206038,28.5525351 8.05934012,28.4380041 7.74589852,27.9832813 C7.57412573,27.7340834 7.5244585,27.4204968 7.61081773,27.1304147 L10.1625311,18.5591685 L10.1625311,18.5591685 L3.06009946,13.1247441 C2.62148172,12.7891358 2.53797606,12.1615016 2.87358435,11.7228838 C3.05750497,11.4825118 3.34039551,11.3383719 3.64296639,11.3308641 L12.5832288,11.109027 L12.5832288,11.109027 L15.5569015,2.67488357 C15.7405436,2.15402464 16.3116545,1.88065641 16.8325135,2.06429852 C17.1179554,2.16493838 17.3424586,2.38944159 17.4430985,2.67488357 L20.4167712,11.109027 L20.4167712,11.109027 L29.3570336,11.3308641 C29.9091484,11.3445639 30.34562,11.8032472 30.3319203,12.355362 C30.3244125,12.6579329 30.1802726,12.9408234 29.9399005,13.1247441 L22.8374689,18.5591685 L22.8374689,18.5591685 L25.3891823,27.1304147 C25.5467659,27.6597406 25.2454092,28.2165907 24.7160834,28.3741743 C24.4260014,28.4605336 24.1124148,28.4108663 23.8632168,28.2390935 L16.5,23.1636091 L16.5,23.1636091 Z" id="path-2"></path>
        <linearGradient x1="14.4224581%" y1="43.5067303%" x2="60.4201688%" y2="80.8000034%" id="linearGradient-4">
            <stop stop-color="#F4DD2A" offset="0%"></stop>
            <stop stop-color="#E5B813" offset="100%"></stop>
        </linearGradient>
    </defs>
    <g id="Master-Chrome-1.4.0" stroke="none" stroke-width="1" fill="none" fill-rule="evenodd">
        <g id="好评引导弹窗" transform="translate(-77.000000, -305.000000)">
            <g id="弹窗" transform="translate(40.000000, 215.000000)">
                <g id="star" transform="translate(37.000000, 90.000000)">
                    <mask id="mask-3" fill="white">
                        <use xlink:href="#path-2"></use>
                    </mask>
                    <use id="星形" fill="url(#linearGradient-1)" xlink:href="#path-2"></use>
                    <path d="M30.8394292,11 C31.1160183,11.589936 31.0352812,12.1102311 30.5972182,12.5608853 C30.1591551,13.0115395 27.572572,15.0109672 22.8374689,18.5591685 C24.5259825,23.8964877 25.3702393,26.7897695 25.3702393,27.2390137 C25.3702393,27.91288 25.1336484,28.390625 24.3843994,28.390625 C23.8849001,28.390625 21.2567669,26.6482864 16.5,23.1636091 C13.0270182,25.5845657 10.8560856,27.0948186 9.98720199,27.694368 C9.33313732,28.1456875 8.55603027,28.7496338 7.89538574,28.098877 C7.23474121,27.4481201 7.78453848,26.5540413 8.13232422,25.2305908 C8.40704704,24.1851712 8.93227491,21.9018053 9.70800781,18.3804932" id="路径-3" stroke="url(#linearGradient-4)" mask="url(#mask-3)"></path>
                    <circle id="椭圆形" fill-opacity="0.4" fill="#FFF687" mask="url(#mask-3)" cx="10" cy="8" r="9"></circle>
                </g>
            </g>
        </g>
    </g>
</svg>