<?xml version="1.0" encoding="UTF-8"?>
<svg width="33px" height="33px" viewBox="0 0 33 33" version="1.1" xmlns="http://www.w3.org/2000/svg" xmlns:xlink="http://www.w3.org/1999/xlink">
    <title>star eadge 2</title>
    <defs>
        <linearGradient x1="21.0608322%" y1="9.98288272%" x2="76.2903792%" y2="84.4649754%" id="linearGradient-1">
            <stop stop-color="#FFED61" offset="0%"></stop>
            <stop stop-color="#F7D43A" offset="100%"></stop>
        </linearGradient>
        <path d="M16.5,23.1636091 L9.13678317,28.2390935 C8.68206038,28.5525351 8.05934012,28.4380041 7.74589852,27.9832813 C7.57412573,27.7340834 7.5244585,27.4204968 7.61081773,27.1304147 L10.1625311,18.5591685 L10.1625311,18.5591685 L3.06009946,13.1247441 C2.62148172,12.7891358 2.53797606,12.1615016 2.87358435,11.7228838 C3.05750497,11.4825118 3.34039551,11.3383719 3.64296639,11.3308641 L12.5832288,11.109027 L12.5832288,11.109027 L15.5569015,2.67488357 C15.7405436,2.15402464 16.3116545,1.88065641 16.8325135,2.06429852 C17.1179554,2.16493838 17.3424586,2.38944159 17.4430985,2.67488357 L20.4167712,11.109027 L20.4167712,11.109027 L29.3570336,11.3308641 C29.9091484,11.3445639 30.34562,11.8032472 30.3319203,12.355362 C30.3244125,12.6579329 30.1802726,12.9408234 29.9399005,13.1247441 L22.8374689,18.5591685 L22.8374689,18.5591685 L25.3891823,27.1304147 C25.5467659,27.6597406 25.2454092,28.2165907 24.7160834,28.3741743 C24.4260014,28.4605336 24.1124148,28.4108663 23.8632168,28.2390935 L16.5,23.1636091 L16.5,23.1636091 Z" id="path-2"></path>
    </defs>
    <g id="Master-Chrome-1.4.0" stroke="none" stroke-width="1" fill="none" fill-rule="evenodd">
        <g id="好评引导弹窗" transform="translate(-257.000000, -305.000000)">
            <g id="弹窗" transform="translate(40.000000, 215.000000)">
                <g id="star-eadge" transform="translate(217.000000, 90.000000)">
                    <mask id="mask-3" fill="white">
                        <use xlink:href="#path-2"></use>
                    </mask>
                    <path stroke="url(#linearGradient-1)" stroke-width="1.5" d="M16.3920628,2.78189856 C16.6544889,2.79678237 16.7106147,2.85290817 16.7357746,2.92426866 L16.7357746,2.92426866 L19.8813491,11.8459723 L29.3384294,12.0806333 C29.4074437,12.0823458 29.4692304,12.1118697 29.5133353,12.1582191 C29.5574403,12.2045686 29.5838635,12.2677434 29.582151,12.3367578 C29.5802741,12.4124005 29.5442391,12.4831231 29.4841461,12.5291033 L29.4841461,12.5291033 L21.9711377,18.2776804 L24.6703603,27.3444125 C24.6900583,27.4105782 24.6810725,27.4784642 24.6506207,27.5347333 C24.620169,27.5910024 24.5682514,27.6356545 24.5020856,27.6553524 C24.4295651,27.6769422 24.3511685,27.6645254 24.288869,27.6215822 L24.288869,27.6215822 L16.5,22.2526946 L8.71113101,27.6215822 C8.65429066,27.6607624 8.58695047,27.6731943 8.52402532,27.6616211 C8.46110017,27.6500479 8.40259005,27.6144695 8.36340985,27.5576292 C8.32046665,27.4953297 8.30804984,27.416933 8.32963965,27.3444125 L8.32963965,27.3444125 L11.0288623,18.2776804 L3.51585388,12.5291033 C3.46102667,12.4871523 3.42839395,12.4269496 3.4199558,12.3635279 C3.41151765,12.3001062 3.42727407,12.2334655 3.46922511,12.1786382 C3.51520526,12.1185452 3.5859279,12.0825103 3.66157062,12.0806333 L3.66157062,12.0806333 L13.1186509,11.8459723 L16.2642254,2.92426866 C16.2871806,2.8591613 16.3343527,2.8095221 16.3920628,2.78189856 Z"></path>
                </g>
            </g>
        </g>
    </g>
</svg>